<?xml version="1.0" encoding="UTF-8" standalone="no"?>
<!-- Created with Inkscape (http://www.inkscape.org/) -->

<svg
   xmlns:dc="http://purl.org/dc/elements/1.1/"
   xmlns:cc="http://creativecommons.org/ns#"
   xmlns:rdf="http://www.w3.org/1999/02/22-rdf-syntax-ns#"
   xmlns:svg="http://www.w3.org/2000/svg"
   xmlns="http://www.w3.org/2000/svg"
   xmlns:sodipodi="http://sodipodi.sourceforge.net/DTD/sodipodi-0.dtd"
   xmlns:inkscape="http://www.inkscape.org/namespaces/inkscape"
   width="79.956108mm"
   height="81.99295mm"
   viewBox="0 0 79.956106 81.992951"
   version="1.1"
   id="svg8"
   inkscape:version="0.92.1 r15371"
   sodipodi:docname="logo.svg">
  <defs
     id="defs2">
    <marker
       inkscape:stockid="DotS"
       orient="auto"
       refY="0"
       refX="0"
       id="marker7439"
       style="overflow:visible"
       inkscape:isstock="true">
      <path
         id="path7437"
         d="m -2.5,-1 c 0,2.76 -2.24,5 -5,5 -2.76,0 -5,-2.24 -5,-5 0,-2.76 2.24,-5 5,-5 2.76,0 5,2.24 5,5 z"
         style="fill:#3fb79e;fill-opacity:1;fill-rule:evenodd;stroke:#3fb79e;stroke-width:1.00000003pt;stroke-opacity:1"
         transform="matrix(0.2,0,0,0.2,1.48,0.2)"
         inkscape:connector-curvature="0" />
    </marker>
    <marker
       inkscape:isstock="true"
       style="overflow:visible"
       id="marker7249"
       refX="0"
       refY="0"
       orient="auto"
       inkscape:stockid="DotS">
      <path
         transform="matrix(0.2,0,0,0.2,1.48,0.2)"
         style="fill:#3fb79e;fill-opacity:1;fill-rule:evenodd;stroke:#3fb79e;stroke-width:1.00000003pt;stroke-opacity:1"
         d="m -2.5,-1 c 0,2.76 -2.24,5 -5,5 -2.76,0 -5,-2.24 -5,-5 0,-2.76 2.24,-5 5,-5 2.76,0 5,2.24 5,5 z"
         id="path7247"
         inkscape:connector-curvature="0" />
    </marker>
    <marker
       inkscape:stockid="Torso"
       orient="auto"
       refY="0"
       refX="0"
       id="Torso"
       style="overflow:visible"
       inkscape:isstock="true">
      <g
         id="g4749"
         transform="scale(0.7)"
         style="fill:#ff0000;fill-opacity:1;stroke:#3fb79e;stroke-opacity:1">
        <path
           id="path4735"
           d="m -4.7792281,-3.239542 c 2.350374,0.3659393 5.30026732,1.9375477 5.03715532,3.62748546 C -0.00518779,2.0778819 -2.2126741,2.6176539 -4.5630471,2.2517169 -6.9134221,1.8857769 -8.521035,0.75201414 -8.257922,-0.93792336 -7.994809,-2.6278615 -7.1296041,-3.6054813 -4.7792281,-3.239542 Z"
           style="fill:#ff0000;fill-opacity:1;fill-rule:evenodd;stroke:#3fb79e;stroke-width:1.25;stroke-opacity:1"
           inkscape:connector-curvature="0" />
        <path
           id="path4737"
           d="M 4.4598789,0.08866574 C -2.5564571,-4.378332 5.2248769,-3.9061806 -0.84829578,-8.7197331"
           style="fill:#ff0000;fill-opacity:1;fill-rule:evenodd;stroke:#3fb79e;stroke-width:1.00000003pt;stroke-opacity:1"
           inkscape:connector-curvature="0" />
        <path
           id="path4739"
           d="M 4.9298719,0.05752074 C -1.3872731,1.7494689 1.8027579,5.4782079 -4.9448731,7.5462725"
           style="fill:#ff0000;fill-opacity:1;fill-rule:evenodd;stroke:#3fb79e;stroke-width:1.00000003pt;stroke-opacity:1"
           inkscape:connector-curvature="0" />
        <rect
           id="rect4741"
           transform="matrix(0.527536,-0.849533,0.887668,0.460484,0,0)"
           y="-1.7408575"
           x="-10.391706"
           height="2.7608147"
           width="2.6366582"
           style="fill:#ff0000;fill-opacity:1;fill-rule:evenodd;stroke:#3fb79e;stroke-width:1.00000003pt;stroke-opacity:1" />
        <rect
           id="rect4743"
           transform="matrix(0.671205,-0.741272,0.790802,0.612072,0,0)"
           y="-7.9629307"
           x="4.9587269"
           height="2.8614161"
           width="2.7327356"
           style="fill:#ff0000;fill-opacity:1;fill-rule:evenodd;stroke:#3fb79e;stroke-width:1.00000003pt;stroke-opacity:1" />
        <path
           id="path4745"
           transform="matrix(0,-1.109517,1.109517,0,25.96648,19.71619)"
           d="m 16.779951,-28.685045 a 0.60731727,0.60731727 0 1 0 -1.214634,0 0.60731727,0.60731727 0 1 0 1.214634,0 z"
           style="fill:#ff0000;fill-opacity:1;fill-rule:evenodd;stroke:#3fb79e;stroke-width:1.00000003pt;stroke-opacity:1"
           inkscape:connector-curvature="0" />
        <path
           id="path4747"
           transform="matrix(0,-1.109517,1.109517,0,26.8245,16.99126)"
           d="m 16.779951,-28.685045 a 0.60731727,0.60731727 0 1 0 -1.214634,0 0.60731727,0.60731727 0 1 0 1.214634,0 z"
           style="fill:#ff0000;fill-opacity:1;fill-rule:evenodd;stroke:#3fb79e;stroke-width:1.00000003pt;stroke-opacity:1"
           inkscape:connector-curvature="0" />
      </g>
    </marker>
    <marker
       style="overflow:visible"
       inkscape:stockid="InfiniteLineEnd"
       id="InfiniteLineEnd"
       refX="0"
       refY="0"
       orient="auto"
       inkscape:isstock="true">
      <g
         id="g4764"
         style="fill:#ff0000;fill-opacity:1;stroke:#3fb79e;stroke-opacity:1">
        <circle
           id="circle4758"
           r="0.80000001"
           cy="0"
           cx="3"
           style="fill:#ff0000;fill-opacity:1;stroke:#3fb79e;stroke-opacity:1" />
        <circle
           id="circle4760"
           r="0.80000001"
           cy="0"
           cx="6.5"
           style="fill:#ff0000;fill-opacity:1;stroke:#3fb79e;stroke-opacity:1" />
        <circle
           id="circle4762"
           r="0.80000001"
           cy="0"
           cx="10"
           style="fill:#ff0000;fill-opacity:1;stroke:#3fb79e;stroke-opacity:1" />
      </g>
    </marker>
    <marker
       inkscape:stockid="SemiCircleIn"
       orient="auto"
       refY="0"
       refX="0"
       id="SemiCircleIn"
       style="overflow:visible"
       inkscape:isstock="true">
      <path
         id="path4701"
         d="m -0.37450702,-0.04569258 c 0,2.75999998 2.24000002,4.99999998 5.00000002,4.99999998 v -10 c -2.76,0 -5.00000002,2.24 -5.00000002,5.00000002 z"
         style="fill:#ff0000;fill-opacity:1;fill-rule:evenodd;stroke:#3fb79e;stroke-width:1.00000003pt;stroke-opacity:1"
         transform="scale(0.6)"
         inkscape:connector-curvature="0" />
    </marker>
    <inkscape:path-effect
       effect="bspline"
       id="path-effect6226"
       is_visible="true"
       weight="33.333333"
       steps="2"
       helper_size="0"
       apply_no_weight="true"
       apply_with_weight="true"
       only_selected="false" />
    <marker
       inkscape:stockid="DotS"
       orient="auto"
       refY="0"
       refX="0"
       id="marker6084"
       style="overflow:visible"
       inkscape:isstock="true">
      <path
         id="path6082"
         d="m -2.5,-1 c 0,2.76 -2.24,5 -5,5 -2.76,0 -5,-2.24 -5,-5 0,-2.76 2.24,-5 5,-5 2.76,0 5,2.24 5,5 z"
         style="fill:#3fb79e;fill-opacity:1;fill-rule:evenodd;stroke:#3fb79e;stroke-width:1.00000003pt;stroke-opacity:1"
         transform="matrix(0.2,0,0,0.2,1.48,0.2)"
         inkscape:connector-curvature="0" />
    </marker>
    <marker
       inkscape:stockid="DotM"
       orient="auto"
       refY="0"
       refX="0"
       id="marker5924"
       style="overflow:visible"
       inkscape:isstock="true">
      <path
         id="path5922"
         d="m -2.5,-1 c 0,2.76 -2.24,5 -5,5 -2.76,0 -5,-2.24 -5,-5 0,-2.76 2.24,-5 5,-5 2.76,0 5,2.24 5,5 z"
         style="fill:#2ee5ce;fill-opacity:1;fill-rule:evenodd;stroke:#2ee5ce;stroke-width:1.00000003pt;stroke-opacity:1"
         transform="matrix(0.4,0,0,0.4,2.96,0.4)"
         inkscape:connector-curvature="0" />
    </marker>
    <marker
       inkscape:stockid="Arrow1Send"
       orient="auto"
       refY="0"
       refX="0"
       id="marker5800"
       style="overflow:visible"
       inkscape:isstock="true">
      <path
         id="path5798"
         d="M 0,0 5,-5 -12.5,0 5,5 Z"
         style="fill:#3fb79e;fill-opacity:1;fill-rule:evenodd;stroke:#3fb79e;stroke-width:1.00000003pt;stroke-opacity:1"
         transform="matrix(-0.2,0,0,-0.2,-1.2,0)"
         inkscape:connector-curvature="0" />
    </marker>
    <marker
       inkscape:stockid="Arrow1Mend"
       orient="auto"
       refY="0"
       refX="0"
       id="Arrow1Mend"
       style="overflow:visible"
       inkscape:isstock="true">
      <path
         id="path4532"
         d="M 0,0 5,-5 -12.5,0 5,5 Z"
         style="fill:#2ee5ce;fill-opacity:1;fill-rule:evenodd;stroke:#2ee5ce;stroke-width:1.00000003pt;stroke-opacity:1"
         transform="matrix(-0.4,0,0,-0.4,-4,0)"
         inkscape:connector-curvature="0" />
    </marker>
    <marker
       inkscape:stockid="Arrow2Mend"
       orient="auto"
       refY="0"
       refX="0"
       id="Arrow2Mend"
       style="overflow:visible"
       inkscape:isstock="true">
      <path
         id="path4550"
         style="fill:#2ee5ce;fill-opacity:1;fill-rule:evenodd;stroke:#2ee5ce;stroke-width:0.625;stroke-linejoin:round;stroke-opacity:1"
         d="M 8.7185878,4.0337352 -2.2072895,0.01601326 8.7185884,-4.0017078 c -1.7454984,2.3720609 -1.7354408,5.6174519 -6e-7,8.035443 z"
         transform="scale(-0.6)"
         inkscape:connector-curvature="0" />
    </marker>
    <marker
       inkscape:stockid="DotM"
       orient="auto"
       refY="0"
       refX="0"
       id="DotM"
       style="overflow:visible"
       inkscape:isstock="true">
      <path
         id="path4587"
         d="m -2.5,-1 c 0,2.76 -2.24,5 -5,5 -2.76,0 -5,-2.24 -5,-5 0,-2.76 2.24,-5 5,-5 2.76,0 5,2.24 5,5 z"
         style="fill:#2ee5ce;fill-opacity:1;fill-rule:evenodd;stroke:#2ee5ce;stroke-width:1.00000003pt;stroke-opacity:1"
         transform="matrix(0.4,0,0,0.4,2.96,0.4)"
         inkscape:connector-curvature="0" />
    </marker>
    <marker
       inkscape:stockid="DotL"
       orient="auto"
       refY="0"
       refX="0"
       id="marker5370"
       style="overflow:visible"
       inkscape:isstock="true">
      <path
         id="path5368"
         d="m -2.5,-1 c 0,2.76 -2.24,5 -5,5 -2.76,0 -5,-2.24 -5,-5 0,-2.76 2.24,-5 5,-5 2.76,0 5,2.24 5,5 z"
         style="fill:#2ee5ce;fill-opacity:1;fill-rule:evenodd;stroke:#2ee5ce;stroke-width:1.00000003pt;stroke-opacity:1"
         transform="matrix(0.8,0,0,0.8,5.92,0.8)"
         inkscape:connector-curvature="0" />
    </marker>
    <marker
       inkscape:stockid="Arrow1Send"
       orient="auto"
       refY="0"
       refX="0"
       id="Arrow1Send"
       style="overflow:visible"
       inkscape:isstock="true">
      <path
         id="path4538"
         d="M 0,0 5,-5 -12.5,0 5,5 Z"
         style="fill:#2ee5ce;fill-opacity:1;fill-rule:evenodd;stroke:#2ee5ce;stroke-width:1.00000003pt;stroke-opacity:1"
         transform="matrix(-0.2,0,0,-0.2,-1.2,0)"
         inkscape:connector-curvature="0" />
    </marker>
    <marker
       inkscape:stockid="Arrow1Mstart"
       orient="auto"
       refY="0"
       refX="0"
       id="Arrow1Mstart"
       style="overflow:visible"
       inkscape:isstock="true">
      <path
         id="path4529"
         d="M 0,0 5,-5 -12.5,0 5,5 Z"
         style="fill:#ff0000;fill-opacity:1;fill-rule:evenodd;stroke:#3fb79e;stroke-width:1.00000003pt;stroke-opacity:1"
         transform="matrix(0.4,0,0,0.4,4,0)"
         inkscape:connector-curvature="0" />
    </marker>
    <inkscape:path-effect
       effect="bspline"
       id="path-effect5120"
       is_visible="true"
       weight="33.333333"
       steps="2"
       helper_size="0"
       apply_no_weight="true"
       apply_with_weight="true"
       only_selected="false" />
    <marker
       inkscape:stockid="Tail"
       orient="auto"
       refY="0"
       refX="0"
       id="marker4929"
       style="overflow:visible"
       inkscape:isstock="true">
      <g
         id="g4927"
         transform="scale(-1.2)"
         style="fill:#40eecc;fill-opacity:1;stroke:#40eecc;stroke-opacity:1">
        <path
           id="path4915"
           d="M -3.8048674,-3.9585227 0.54352094,0"
           style="fill:#40eecc;fill-opacity:1;fill-rule:evenodd;stroke:#40eecc;stroke-width:0.80000001;stroke-linecap:round;stroke-opacity:1"
           inkscape:connector-curvature="0" />
        <path
           id="path4917"
           d="M -1.2866832,-3.9585227 3.0617053,0"
           style="fill:#40eecc;fill-opacity:1;fill-rule:evenodd;stroke:#40eecc;stroke-width:0.80000001;stroke-linecap:round;stroke-opacity:1"
           inkscape:connector-curvature="0" />
        <path
           id="path4919"
           d="M 1.3053582,-3.9585227 5.6537466,0"
           style="fill:#40eecc;fill-opacity:1;fill-rule:evenodd;stroke:#40eecc;stroke-width:0.80000001;stroke-linecap:round;stroke-opacity:1"
           inkscape:connector-curvature="0" />
        <path
           id="path4921"
           d="M -3.8048674,4.1775838 0.54352094,0.21974226"
           style="fill:#40eecc;fill-opacity:1;fill-rule:evenodd;stroke:#40eecc;stroke-width:0.80000001;stroke-linecap:round;stroke-opacity:1"
           inkscape:connector-curvature="0" />
        <path
           id="path4923"
           d="M -1.2866832,4.1775838 3.0617053,0.21974226"
           style="fill:#40eecc;fill-opacity:1;fill-rule:evenodd;stroke:#40eecc;stroke-width:0.80000001;stroke-linecap:round;stroke-opacity:1"
           inkscape:connector-curvature="0" />
        <path
           id="path4925"
           d="M 1.3053582,4.1775838 5.6537466,0.21974226"
           style="fill:#40eecc;fill-opacity:1;fill-rule:evenodd;stroke:#40eecc;stroke-width:0.80000001;stroke-linecap:round;stroke-opacity:1"
           inkscape:connector-curvature="0" />
      </g>
    </marker>
    <marker
       inkscape:stockid="DotL"
       orient="auto"
       refY="0"
       refX="0"
       id="DotL"
       style="overflow:visible"
       inkscape:isstock="true">
      <path
         id="path4584"
         d="m -2.5,-1 c 0,2.76 -2.24,5 -5,5 -2.76,0 -5,-2.24 -5,-5 0,-2.76 2.24,-5 5,-5 2.76,0 5,2.24 5,5 z"
         style="fill:#40eecc;fill-opacity:1;fill-rule:evenodd;stroke:#40eecc;stroke-width:1.00000003pt;stroke-opacity:1"
         transform="matrix(0.8,0,0,0.8,5.92,0.8)"
         inkscape:connector-curvature="0" />
    </marker>
    <marker
       inkscape:stockid="Tail"
       orient="auto"
       refY="0"
       refX="0"
       id="Tail"
       style="overflow:visible"
       inkscape:isstock="true">
      <g
         id="g4571"
         transform="scale(-1.2)"
         style="fill:#40eecc;fill-opacity:1;stroke:#40eecc;stroke-opacity:1">
        <path
           id="path4559"
           d="M -3.8048674,-3.9585227 0.54352094,0"
           style="fill:#40eecc;fill-opacity:1;fill-rule:evenodd;stroke:#40eecc;stroke-width:0.80000001;stroke-linecap:round;stroke-opacity:1"
           inkscape:connector-curvature="0" />
        <path
           id="path4561"
           d="M -1.2866832,-3.9585227 3.0617053,0"
           style="fill:#40eecc;fill-opacity:1;fill-rule:evenodd;stroke:#40eecc;stroke-width:0.80000001;stroke-linecap:round;stroke-opacity:1"
           inkscape:connector-curvature="0" />
        <path
           id="path4563"
           d="M 1.3053582,-3.9585227 5.6537466,0"
           style="fill:#40eecc;fill-opacity:1;fill-rule:evenodd;stroke:#40eecc;stroke-width:0.80000001;stroke-linecap:round;stroke-opacity:1"
           inkscape:connector-curvature="0" />
        <path
           id="path4565"
           d="M -3.8048674,4.1775838 0.54352094,0.21974226"
           style="fill:#40eecc;fill-opacity:1;fill-rule:evenodd;stroke:#40eecc;stroke-width:0.80000001;stroke-linecap:round;stroke-opacity:1"
           inkscape:connector-curvature="0" />
        <path
           id="path4567"
           d="M -1.2866832,4.1775838 3.0617053,0.21974226"
           style="fill:#40eecc;fill-opacity:1;fill-rule:evenodd;stroke:#40eecc;stroke-width:0.80000001;stroke-linecap:round;stroke-opacity:1"
           inkscape:connector-curvature="0" />
        <path
           id="path4569"
           d="M 1.3053582,4.1775838 5.6537466,0.21974226"
           style="fill:#40eecc;fill-opacity:1;fill-rule:evenodd;stroke:#40eecc;stroke-width:0.80000001;stroke-linecap:round;stroke-opacity:1"
           inkscape:connector-curvature="0" />
      </g>
    </marker>
    <marker
       inkscape:stockid="DotS"
       orient="auto"
       refY="0"
       refX="0"
       id="DotS"
       style="overflow:visible"
       inkscape:isstock="true"
       inkscape:collect="always">
      <path
         inkscape:connector-curvature="0"
         id="path4590"
         d="m -2.5,-1 c 0,2.76 -2.24,5 -5,5 -2.76,0 -5,-2.24 -5,-5 0,-2.76 2.24,-5 5,-5 2.76,0 5,2.24 5,5 z"
         style="fill:#3fb79e;fill-opacity:1;fill-rule:evenodd;stroke:#3fb79e;stroke-width:1.00000003pt;stroke-opacity:1"
         transform="matrix(0.2,0,0,0.2,1.48,0.2)" />
    </marker>
    <marker
       inkscape:stockid="Arrow1Send"
       orient="auto"
       refY="0"
       refX="0"
       id="marker5800-9"
       style="overflow:visible"
       inkscape:isstock="true">
      <path
         inkscape:connector-curvature="0"
         id="path5798-2"
         d="M 0,0 5,-5 -12.5,0 5,5 Z"
         style="fill:#3fb79e;fill-opacity:1;fill-rule:evenodd;stroke:#3fb79e;stroke-width:1.00000003pt;stroke-opacity:1"
         transform="matrix(-0.2,0,0,-0.2,-1.2,0)" />
    </marker>
    <marker
       inkscape:stockid="DotS"
       orient="auto"
       refY="0"
       refX="0"
       id="marker6084-5"
       style="overflow:visible"
       inkscape:isstock="true">
      <path
         inkscape:connector-curvature="0"
         id="path6082-6"
         d="m -2.5,-1 c 0,2.76 -2.24,5 -5,5 -2.76,0 -5,-2.24 -5,-5 0,-2.76 2.24,-5 5,-5 2.76,0 5,2.24 5,5 z"
         style="fill:#3fb79e;fill-opacity:1;fill-rule:evenodd;stroke:#3fb79e;stroke-width:1.00000003pt;stroke-opacity:1"
         transform="matrix(0.2,0,0,0.2,1.48,0.2)" />
    </marker>
    <inkscape:path-effect
       effect="bspline"
       id="path-effect5120-0"
       is_visible="true"
       weight="33.333333"
       steps="2"
       helper_size="0"
       apply_no_weight="true"
       apply_with_weight="true"
       only_selected="false" />
    <marker
       inkscape:stockid="DotS"
       orient="auto"
       refY="0"
       refX="0"
       id="marker7439-4"
       style="overflow:visible"
       inkscape:isstock="true">
      <path
         inkscape:connector-curvature="0"
         id="path7437-2"
         d="m -2.5,-1 c 0,2.76 -2.24,5 -5,5 -2.76,0 -5,-2.24 -5,-5 0,-2.76 2.24,-5 5,-5 2.76,0 5,2.24 5,5 z"
         style="fill:#3fb79e;fill-opacity:1;fill-rule:evenodd;stroke:#3fb79e;stroke-width:1.00000003pt;stroke-opacity:1"
         transform="matrix(0.2,0,0,0.2,1.48,0.2)" />
    </marker>
    <marker
       inkscape:stockid="DotS"
       orient="auto"
       refY="0"
       refX="0"
       id="marker7706"
       style="overflow:visible"
       inkscape:isstock="true">
      <path
         inkscape:connector-curvature="0"
         id="path7704"
         d="m -2.5,-1 c 0,2.76 -2.24,5 -5,5 -2.76,0 -5,-2.24 -5,-5 0,-2.76 2.24,-5 5,-5 2.76,0 5,2.24 5,5 z"
         style="fill:#3fb79e;fill-opacity:1;fill-rule:evenodd;stroke:#3fb79e;stroke-width:1.00000003pt;stroke-opacity:1"
         transform="matrix(0.2,0,0,0.2,1.48,0.2)" />
    </marker>
  </defs>
  <sodipodi:namedview
     id="base"
     pagecolor="#ffffff"
     bordercolor="#666666"
     borderopacity="1.0"
     inkscape:pageopacity="0.0"
     inkscape:pageshadow="2"
     inkscape:zoom="0.95499438"
     inkscape:cx="-39.79178"
     inkscape:cy="129.16059"
     inkscape:document-units="mm"
     inkscape:current-layer="layer1"
     showgrid="false"
     inkscape:measure-start="196.86,1038.75"
     inkscape:measure-end="0,0"
     inkscape:window-width="1366"
     inkscape:window-height="705"
     inkscape:window-x="-8"
     inkscape:window-y="-8"
     inkscape:window-maximized="1"
     fit-margin-top="0"
     fit-margin-left="0"
     fit-margin-right="0"
     fit-margin-bottom="0" />
  <metadata
     id="metadata5">
    <rdf:RDF>
      <cc:Work
         rdf:about="">
        <dc:format>image/svg+xml</dc:format>
        <dc:type
           rdf:resource="http://purl.org/dc/dcmitype/StillImage" />
        <dc:title></dc:title>
      </cc:Work>
    </rdf:RDF>
  </metadata>
  <g
     inkscape:label="Layer 1"
     inkscape:groupmode="layer"
     id="layer1"
     transform="translate(-61.625661,-73.416825)">
    <path
       style="fill:none;stroke:#000000;stroke-width:0.27450022px;stroke-linecap:butt;stroke-linejoin:miter;stroke-opacity:1"
       d="m 91.549188,214.43843 c 0,0 0,0 0,0 z"
       id="path6224"
       inkscape:connector-curvature="0"
       inkscape:path-effect="#path-effect6226"
       inkscape:original-d="m 91.549188,214.43843 c 2.85e-4,-2.6e-4 2.85e-4,-2.6e-4 0,0 z" />
    <path
       style="fill:none;fill-opacity:1;stroke:#3fb79e;stroke-width:4.14992476;stroke-linecap:butt;stroke-linejoin:miter;stroke-miterlimit:4;stroke-dasharray:none;stroke-opacity:1;marker-start:url(#marker7439-4);marker-end:url(#marker7439-4)"
       d="m 97.259744,86.430402 v 57.072768 -1.66232"
       id="path5116"
       inkscape:connector-curvature="0" />
    <path
       style="fill:none;stroke:#3fb79e;stroke-width:4.14992476;stroke-linecap:butt;stroke-linejoin:miter;stroke-miterlimit:4;stroke-dasharray:none;stroke-opacity:1;marker-start:url(#DotS);marker-mid:url(#marker5800-9);marker-end:url(#marker6084-5)"
       d="m 69.824431,78.118836 c 24.649546,-0.369366 49.304329,-0.73881 61.232599,11.358858 11.92827,12.097666 11.13304,36.663256 -1.7894,48.946046 -12.92244,12.28279 -37.971801,12.28279 -63.021719,12.28279"
       id="path5118"
       inkscape:connector-curvature="0"
       inkscape:path-effect="#path-effect5120-0"
       inkscape:original-d="m 69.824431,78.118836 c 24.652309,-0.184966 49.304329,-0.739071 73.956079,-1.108209 -0.79494,24.564743 -1.59017,49.130333 -2.38568,73.695903 -25.04964,-2.7e-4 -50.099001,-2.7e-4 -75.148919,0" />
  </g>
</svg>
